<?xml version="1.0" encoding="UTF-8"?>
<svg width="990px" height="194px" viewBox="0 0 990 194" version="1.1" xmlns="http://www.w3.org/2000/svg" xmlns:xlink="http://www.w3.org/1999/xlink">
    <!-- Generator: Sketch 43 (38999) - http://www.bohemiancoding.com/sketch -->
    <title>gdg-logo</title>
    <desc>Created with Sketch.</desc>
    <defs>
        <radialGradient cx="98.7985294%" cy="97.9036527%" fx="98.7985294%" fy="97.9036527%" r="325.466912%" gradientTransform="translate(0.987985,0.979037),scale(1.000000,0.719958),translate(-0.987985,-0.979037)" id="radialGradient-1">
            <stop stop-color="#BF360C" stop-opacity="0.2" offset="0%"></stop>
            <stop stop-color="#BF360C" stop-opacity="0.02" offset="100%"></stop>
        </radialGradient>
        <radialGradient cx="162.571513%" cy="157.70665%" fx="162.571513%" fy="157.70665%" r="262.641554%" gradientTransform="translate(1.625715,1.577067),scale(1.000000,0.693186),translate(-1.625715,-1.577067)" id="radialGradient-2">
            <stop stop-color="#263238" stop-opacity="0.2" offset="0%"></stop>
            <stop stop-color="#263238" stop-opacity="0.02" offset="100%"></stop>
        </radialGradient>
        <radialGradient cx="-1.24996094%" cy="0.78125%" fx="-1.24996094%" fy="0.78125%" r="167.932627%" gradientTransform="translate(-0.012500,0.007812),scale(1.000000,0.625020),translate(0.012500,-0.007812)" id="radialGradient-3">
            <stop stop-color="#FFFFFF" stop-opacity="0.1" offset="0%"></stop>
            <stop stop-color="#FFFFFF" stop-opacity="0" offset="100%"></stop>
        </radialGradient>
    </defs>
    <g id="IO-Extended" stroke="none" stroke-width="1" fill="none" fill-rule="evenodd">
        <g id="gdg-logo">
            <g id="logo_lockup_gdg_horizontal" transform="translate(53.000000, 30.000000)">
                <g id="XMLID_50_-Gray">
                    <g id="XMLID_72_">
                        <path d="M79.33,58.27 L45.79,0.27 L0.94,0.27 L37.96,64.27 L0.94,128.27 L45.79,128.27 L79.33,70.27 C81.48,66.56 81.48,61.98 79.33,58.27 Z" id="Shape"></path>
                        <polygon id="XMLID_80_" fill="#757575" fill-rule="nonzero" points="60.09 102.54 49.46 84.15 23.94 128.27 45.79 128.27 60.38 103.04"></polygon>
                        <path d="M79.33,58.27 L45.79,0.27 L0.94,0.27 L37.96,64.27 L0.94,128.27 L45.79,128.27 L79.33,70.27 C81.48,66.56 81.48,61.98 79.33,58.27 Z" id="Shape"></path>
                        <polygon id="Shape" fill="#757575" fill-rule="nonzero" points="37.96 64.27 49.46 84.15 23.94 128.27 0.94 128.27"></polygon>
                        <path d="M79.33,58.27 L45.79,0.27 L0.94,0.27 L37.96,64.27 L0.94,128.27 L45.79,128.27 L79.33,70.27 C81.48,66.56 81.48,61.98 79.33,58.27 Z" id="Shape"></path>
                        <polygon id="Shape" fill="#757575" fill-rule="nonzero" opacity="0.2" points="45.79 127.27 24.52 127.27 23.94 128.27 45.79 128.27 60.38 103.04 60.09 102.54"></polygon>
                        <path d="M79.33,58.27 L45.79,0.27 L0.94,0.27 L37.96,64.27 L0.94,128.27 L45.79,128.27 L79.33,70.27 C81.48,66.56 81.48,61.98 79.33,58.27 Z" id="Shape"></path>
                        <polygon id="Shape" fill="#757575" fill-rule="nonzero" opacity="0.2" points="1.52 127.27 0.94 128.27 23.94 128.27 24.52 127.27"></polygon>
                        <path d="M79.33,58.27 L45.79,0.27 L0.94,0.27 L37.96,64.27 L0.94,128.27 L45.79,128.27 L79.33,70.27 C81.48,66.56 81.48,61.98 79.33,58.27 Z" id="Shape"></path>
                        <polygon id="Shape" fill="#757575" fill-rule="nonzero" opacity="0.2" points="0.94 128.27 1.52 128.27 38.25 64.77 37.96 64.27"></polygon>
                        <path d="M79.33,58.27 L45.79,0.27 L0.94,0.27 L37.96,64.27 L0.94,128.27 L45.79,128.27 L79.33,70.27 C81.48,66.56 81.48,61.98 79.33,58.27 Z" id="Shape"></path>
                        <polygon id="XMLID_79_" fill="url(#radialGradient-1)" fill-rule="nonzero" points="60.38 103.04 60.38 103.04 49.46 84.15 46.78 88.78"></polygon>
                        <path d="M79.33,58.27 L45.79,0.27 L0.94,0.27 L37.96,64.27 L0.94,128.27 L45.79,128.27 L79.33,70.27 C81.48,66.56 81.48,61.98 79.33,58.27 Z" id="Shape"></path>
                        <polygon id="XMLID_78_" fill="url(#radialGradient-2)" fill-rule="nonzero" points="46.78 88.78 49.46 84.15 37.96 64.27 32.47 73.77"></polygon>
                        <path d="M79.33,58.27 L45.79,0.27 L0.94,0.27 L37.96,64.27 L0.94,128.27 L45.79,128.27 L79.33,70.27 C81.48,66.56 81.48,61.98 79.33,58.27 Z" id="Shape"></path>
                        <g id="XMLID_75_" fill-rule="nonzero" fill="#757575">
                            <g id="XMLID_76_">
                                <polygon id="XMLID_77_" points="23.94 0.27 0.94 0.27 60.38 103.04 71.87 83.17 71.88 83.15"></polygon>
                            </g>
                        </g>
                        <path d="M79.33,58.27 L45.79,0.27 L0.94,0.27 L37.96,64.27 L0.94,128.27 L45.79,128.27 L79.33,70.27 C81.48,66.56 81.48,61.98 79.33,58.27 Z" id="Shape"></path>
                        <path d="M79.33,70.27 C81.48,66.56 81.48,61.98 79.33,58.27 L45.79,0.27 L23.94,0.27 L71.88,83.15 L79.33,70.27 Z" id="Shape" fill="#757575" fill-rule="nonzero"></path>
                        <path d="M79.33,58.27 L45.79,0.27 L0.94,0.27 L37.96,64.27 L0.94,128.27 L45.79,128.27 L79.33,70.27 C81.48,66.56 81.48,61.98 79.33,58.27 Z" id="Shape"></path>
                        <polygon id="Shape" fill="#757575" fill-rule="nonzero" opacity="0.2" points="71.88 83.15 71.59 82.66 60.38 102.04 1.52 0.27 0.94 0.27 60.38 103.04 71.87 83.17"></polygon>
                        <path d="M79.33,58.27 L45.79,0.27 L0.94,0.27 L37.96,64.27 L0.94,128.27 L45.79,128.27 L79.33,70.27 C81.48,66.56 81.48,61.98 79.33,58.27 Z" id="Shape"></path>
                        <path d="M45.79,1.27 L79.33,59.27 C80.32,60.98 80.83,62.87 80.91,64.77 C81,62.53 80.49,60.27 79.33,58.27 L45.79,0.27 L0.94,0.27 L1.52,1.27 L45.79,1.27 Z" id="Shape" fill="#757575" fill-rule="nonzero" opacity="0.2"></path>
                        <path d="M79.33,58.27 L45.79,0.27 L0.94,0.27 L37.96,64.27 L0.94,128.27 L45.79,128.27 L79.33,70.27 C81.48,66.56 81.48,61.98 79.33,58.27 Z" id="Shape"></path>
                        <path d="M71.88,83.15 L79.33,70.27 C80.49,68.27 81,66.01 80.91,63.77 C80.83,65.67 80.32,67.56 79.33,69.27 L71.59,82.66 L71.88,83.15 Z" id="XMLID_74_" fill="#757575" fill-rule="nonzero" opacity="0.2"></path>
                        <path d="M79.33,58.27 L45.79,0.27 L0.94,0.27 L37.96,64.27 L0.94,128.27 L45.79,128.27 L79.33,70.27 C81.48,66.56 81.48,61.98 79.33,58.27 Z" id="Shape"></path>
                        <path d="M79.33,58.27 L45.79,0.27 L0.94,0.27 L37.96,64.27 L0.94,128.27 L45.79,128.27 L79.33,70.27 C81.48,66.56 81.48,61.98 79.33,58.27 Z" id="XMLID_73_" fill="url(#radialGradient-3)" fill-rule="nonzero"></path>
                    </g>
                </g>
                <g id="XMLID_8_" opacity="0.54" transform="translate(128.000000, 8.000000)">
                    <path d="M115.4,3.45 L146,3.45 C177.16,3.45 196.72,24.13 196.72,53.15 C196.72,82.3 177.15,102.85 146,102.85 L115.4,102.85 L115.4,3.45 L115.4,3.45 Z M146.53,87.79 C168.22,87.79 181.66,75.75 181.66,53.15 C181.66,30.68 168.22,18.51 146.53,18.51 L130.46,18.51 L130.46,87.79 L146.53,87.79 L146.53,87.79 Z" id="XMLID_104_" fill="#000000" fill-rule="nonzero"></path>
                    <rect id="XMLID_103_" x="0.4" y="0.85" width="307.23" height="108.44"></rect>
                    <path d="M102.83,48.64 L55.16,48.64 L55.16,63.4 L88.77,63.4 C87.66,70.93 85.05,76.8 81.14,80.72 C76.16,85.7 68.38,91.18 54.73,91.18 C33.68,91.18 17.22,74.21 17.22,53.16 C17.22,32.11 33.68,15.14 54.73,15.14 C66.08,15.14 74.38,19.61 80.5,25.35 L90.58,15.27 C82.03,7.1 70.68,0.85 54.73,0.85 C25.9,0.85 1.66,24.32 1.66,53.16 C1.66,81.99 25.9,105.47 54.73,105.47 C70.29,105.47 82.03,100.37 91.22,90.8 C100.66,81.36 103.6,68.09 103.6,57.37 C103.6,54.05 103.34,51.19 102.83,48.64 Z" id="XMLID_102_" fill="#000000" fill-rule="nonzero"></path>
                    <path d="M307.65,48.64 L259.98,48.64 L259.98,63.4 L293.59,63.4 C292.48,70.93 289.87,76.8 285.96,80.72 C280.98,85.7 273.2,91.18 259.55,91.18 C238.5,91.18 222.04,74.21 222.04,53.16 C222.04,32.11 238.5,15.14 259.55,15.14 C270.9,15.14 279.2,19.61 285.32,25.35 L295.4,15.27 C286.85,7.1 275.5,0.85 259.55,0.85 C230.72,0.85 206.48,24.32 206.48,53.16 C206.48,81.99 230.72,105.47 259.55,105.47 C275.11,105.47 286.85,100.37 296.04,90.8 C305.48,81.36 308.42,68.09 308.42,57.37 C308.42,54.05 308.16,51.19 307.65,48.64 Z" id="XMLID_86_" fill="#000000" fill-rule="nonzero"></path>
                </g>
            </g>
            <text id="Cuiabá" font-family="ProductSans-Regular, Product Sans" font-size="120" font-weight="normal" line-spacing="142" letter-spacing="-1.30373836" fill="#757575">
                <tspan x="535" y="136">Cuiabá</tspan>
            </text>
        </g>
    </g>
</svg>