<?xml version="1.0" encoding="UTF-8"?>
<svg width="911px" height="263px" viewBox="0 0 911 263" version="1.1" xmlns="http://www.w3.org/2000/svg" xmlns:xlink="http://www.w3.org/1999/xlink">
    <!-- Generator: Sketch 43 (38999) - http://www.bohemiancoding.com/sketch -->
    <title>logo-light</title>
    <desc>Created with Sketch.</desc>
    <defs></defs>
    <g id="IO-Extended" stroke="none" stroke-width="1" fill="none" fill-rule="evenodd">
        <g id="logo-light">
            <g id="Google_IO_Extended+CityName_2017_Logo_rgb" transform="translate(26.000000, 12.000000)">
                <polygon id="Fill-7" fill="#FFFFFF" points="0.621 202.132 85.586 202.132 85.586 32.202 0.621 32.202"></polygon>
                <path d="M243.379,29.167 C194.778,29.167 155.379,68.566 155.379,117.167 C155.379,165.768 194.778,205.167 243.379,205.167 C291.98,205.167 331.379,165.768 331.379,117.167 C331.379,68.566 291.98,29.167 243.379,29.167" id="Fill-8" stroke="#FFFFFF" stroke-width="10"></path>
                <polyline id="Fill-9" fill="#FFFFFF" points="107.294 239.172 95.052 236.403 148.422 0.472 160.664 3.241 107.294 239.172"></polyline>
                <polyline id="Fill-10" fill="#FFFFFF" points="436.644 52.022 398.175 52.022 398.175 78.808 432.867 78.808 432.867 88.956 398.175 88.956 398.175 115.742 436.644 115.742 436.644 126.126 387.319 126.126 387.319 41.638 436.644 41.638 436.644 52.022"></polyline>
                <polyline id="Fill-11" fill="#FFFFFF" points="493.99 126.126 481.25 126.126 466.97 104.768 452.93 126.126 440.183 126.126 460.6 96.744 440.654 68.306 452.93 68.306 467.2 88.72 480.77 68.306 493.52 68.306 473.34 96.744 493.99 126.126"></polyline>
                <path d="M524.2,127.07 C518.14,127.07 513.52,125.459 510.33,122.232 C507.15,119.007 505.55,114.444 505.55,108.544 L505.55,78.218 L495.41,78.218 L495.41,68.306 L505.55,68.306 L505.55,50.606 L516.41,50.606 L516.41,68.306 L530.57,68.306 L530.57,78.218 L516.41,78.218 L516.41,107.718 C516.41,114.013 519,117.158 524.2,117.158 C526.16,117.158 527.81,116.845 529.15,116.214 L532.93,125.536 C530.57,126.558 527.66,127.07 524.2,127.07" id="Fill-12" fill="#FFFFFF"></path>
                <path d="M579.77,90.254 C579.54,86.95 578.02,83.805 575.23,80.814 C572.44,77.825 568.29,76.33 562.78,76.33 C558.77,76.33 555.29,77.589 552.34,80.106 C549.39,82.625 547.36,86.006 546.26,90.254 L579.77,90.254 Z M564.2,128.014 C555.47,128.014 548.37,125.104 542.9,119.282 C537.43,113.461 534.7,106.106 534.7,97.216 C534.7,88.799 537.35,81.563 542.66,75.504 C547.97,69.447 554.76,66.418 563.02,66.418 C571.59,66.418 578.46,69.211 583.61,74.796 C588.76,80.383 591.34,87.855 591.34,97.216 L591.22,99.222 L545.55,99.222 C545.87,105.045 547.82,109.646 551.4,113.028 C554.97,116.411 559.16,118.102 563.96,118.102 C571.75,118.102 577.02,114.798 579.77,108.19 L589.45,112.202 C587.56,116.686 584.45,120.443 580.13,123.471 C575.8,126.498 570.49,128.014 564.2,128.014 L564.2,128.014 Z" id="Fill-13" fill="#FFFFFF"></path>
                <path d="M609.27,68.306 L609.27,76.33 L609.75,76.33 C611.32,73.577 613.8,71.237 617.18,69.309 C620.56,67.382 624.18,66.418 628.04,66.418 C635.19,66.418 640.66,68.621 644.44,73.026 C648.21,77.433 650.1,83.333 650.1,90.726 L650.1,126.126 L639.25,126.126 L639.25,92.378 C639.25,81.681 634.48,76.33 624.97,76.33 C620.48,76.33 616.83,78.12 613.99,81.699 C611.16,85.279 609.75,89.428 609.75,94.148 L609.75,126.126 L598.89,126.126 L598.89,68.306 L609.27,68.306" id="Fill-14" fill="#FFFFFF"></path>
                <path d="M686.45,118.102 C691.56,118.102 695.9,116.214 699.48,112.438 C703.06,108.662 704.85,103.588 704.85,97.216 C704.85,90.844 703.06,85.77 699.48,81.994 C695.9,78.218 691.56,76.33 686.45,76.33 C681.41,76.33 677.08,78.238 673.46,82.053 C669.85,85.869 668.04,90.923 668.04,97.216 C668.04,103.511 669.85,108.564 673.46,112.379 C677.08,116.195 681.41,118.102 686.45,118.102 Z M684.67,128.014 C677.2,128.014 670.75,125.064 665.32,119.164 C659.89,113.264 657.18,105.948 657.18,97.216 C657.18,88.484 659.89,81.168 665.32,75.268 C670.75,69.368 677.2,66.418 684.67,66.418 C689.08,66.418 693.03,67.362 696.53,69.25 C700.03,71.138 702.65,73.498 704.38,76.33 L704.85,76.33 L704.38,68.306 L704.38,41.638 L715.24,41.638 L715.24,126.126 L704.85,126.126 L704.85,118.102 L704.38,118.102 C702.65,120.934 700.03,123.294 696.53,125.182 C693.03,127.07 689.08,128.014 684.67,128.014 L684.67,128.014 Z" id="Fill-15" fill="#FFFFFF"></path>
                <path d="M767.28,90.254 C767.04,86.95 765.52,83.805 762.73,80.814 C759.94,77.825 755.79,76.33 750.28,76.33 C746.27,76.33 742.79,77.589 739.84,80.106 C736.89,82.625 734.86,86.006 733.76,90.254 L767.28,90.254 Z M751.7,128.014 C742.97,128.014 735.87,125.104 730.4,119.282 C724.93,113.461 722.2,106.106 722.2,97.216 C722.2,88.799 724.85,81.563 730.16,75.504 C735.47,69.447 742.26,66.418 750.52,66.418 C759.09,66.418 765.96,69.211 771.11,74.796 C776.26,80.383 778.84,87.855 778.84,97.216 L778.72,99.222 L733.06,99.222 C733.37,105.045 735.32,109.646 738.9,113.028 C742.48,116.411 746.66,118.102 751.46,118.102 C759.25,118.102 764.52,114.798 767.28,108.19 L776.95,112.202 C775.06,116.686 771.96,120.443 767.63,123.471 C763.3,126.498 757.99,128.014 751.7,128.014 L751.7,128.014 Z" id="Fill-16" fill="#FFFFFF"></path>
                <path d="M812.94,118.102 C818.05,118.102 822.4,116.214 825.98,112.438 C829.56,108.662 831.35,103.588 831.35,97.216 C831.35,90.844 829.56,85.77 825.98,81.994 C822.4,78.218 818.05,76.33 812.94,76.33 C807.9,76.33 803.58,78.238 799.96,82.053 C796.34,85.869 794.53,90.923 794.53,97.216 C794.53,103.511 796.34,108.564 799.96,112.379 C803.58,116.195 807.9,118.102 812.94,118.102 Z M811.17,128.014 C803.69,128.014 797.25,125.064 791.82,119.164 C786.39,113.264 783.67,105.948 783.67,97.216 C783.67,88.484 786.39,81.168 791.82,75.268 C797.25,69.368 803.69,66.418 811.17,66.418 C815.57,66.418 819.53,67.362 823.03,69.25 C826.53,71.138 829.14,73.498 830.88,76.33 L831.35,76.33 L830.88,68.306 L830.88,41.638 L841.73,41.638 L841.73,126.126 L831.35,126.126 L831.35,118.102 L830.88,118.102 C829.14,120.934 826.53,123.294 823.03,125.182 C819.53,127.07 815.57,128.014 811.17,128.014 L811.17,128.014 Z" id="Fill-17" fill="#FFFFFF"></path>
                <text id="Cuiabá" font-family="ProductSans-Regular, Product Sans" font-size="90" font-weight="normal" letter-spacing="-2" fill="#FFFFFF">
                    <tspan x="383" y="204">Cuiab</tspan>
                    <tspan x="603.31" y="204">á</tspan>
                </text>
                <text id="17" font-family="ProductSans-Regular, Product Sans" font-size="64" font-weight="normal" letter-spacing="-0.695327103" fill="#FFFFFF">
                    <tspan x="214.671327" y="136">17</tspan>
                </text>
            </g>
        </g>
    </g>
</svg>