<?xml version="1.0" encoding="UTF-8"?>
<svg width="911px" height="263px" viewBox="0 0 911 263" version="1.1" xmlns="http://www.w3.org/2000/svg" xmlns:xlink="http://www.w3.org/1999/xlink">
    <!-- Generator: Sketch 43.1 (39012) - http://www.bohemiancoding.com/sketch -->
    <title>logo-light</title>
    <desc>Created with Sketch.</desc>
    <defs></defs>
    <g id="IO-Extended" stroke="none" stroke-width="1" fill="none" fill-rule="evenodd">
        <g id="logo-light">
            <g id="Google_IO_Extended+CityName_2017_Logo_rgb" transform="translate(26.000000, 12.000000)">
                <polygon id="Fill-7" fill="#FFFFFF" points="0.621 202.132 85.586 202.132 85.586 32.202 0.621 32.202"></polygon>
                <path d="M243.379,29.167 C194.778,29.167 155.379,68.566 155.379,117.167 C155.379,165.768 194.778,205.167 243.379,205.167 C291.98,205.167 331.379,165.768 331.379,117.167 C331.379,68.566 291.98,29.167 243.379,29.167" id="Fill-8" stroke="#FFFFFF" stroke-width="10"></path>
                <polyline id="Fill-9" fill="#FFFFFF" points="107.294 239.172 95.052 236.403 148.422 0.472 160.664 3.241 107.294 239.172"></polyline>
                <polyline id="Fill-10" fill="#FFFFFF" points="436.644 52.022 398.175 52.022 398.175 78.808 432.867 78.808 432.867 88.956 398.175 88.956 398.175 115.742 436.644 115.742 436.644 126.126 387.319 126.126 387.319 41.638 436.644 41.638 436.644 52.022"></polyline>
                <polyline id="Fill-11" fill="#FFFFFF" points="493.99 126.126 481.25 126.126 466.97 104.768 452.93 126.126 440.183 126.126 460.6 96.744 440.654 68.306 452.93 68.306 467.2 88.72 480.77 68.306 493.52 68.306 473.34 96.744 493.99 126.126"></polyline>
                <path d="M524.2,127.07 C518.14,127.07 513.52,125.459 510.33,122.232 C507.15,119.007 505.55,114.444 505.55,108.544 L505.55,78.218 L495.41,78.218 L495.41,68.306 L505.55,68.306 L505.55,50.606 L516.41,50.606 L516.41,68.306 L530.57,68.306 L530.57,78.218 L516.41,78.218 L516.41,107.718 C516.41,114.013 519,117.158 524.2,117.158 C526.16,117.158 527.81,116.845 529.15,116.214 L532.93,125.536 C530.57,126.558 527.66,127.07 524.2,127.07" id="Fill-12" fill="#FFFFFF"></path>
                <path d="M579.77,90.254 C579.54,86.95 578.02,83.805 575.23,80.814 C572.44,77.825 568.29,76.33 562.78,76.33 C558.77,76.33 555.29,77.589 552.34,80.106 C549.39,82.625 547.36,86.006 546.26,90.254 L579.77,90.254 Z M564.2,128.014 C555.47,128.014 548.37,125.104 542.9,119.282 C537.43,113.461 534.7,106.106 534.7,97.216 C534.7,88.799 537.35,81.563 542.66,75.504 C547.97,69.447 554.76,66.418 563.02,66.418 C571.59,66.418 578.46,69.211 583.61,74.796 C588.76,80.383 591.34,87.855 591.34,97.216 L591.22,99.222 L545.55,99.222 C545.87,105.045 547.82,109.646 551.4,113.028 C554.97,116.411 559.16,118.102 563.96,118.102 C571.75,118.102 577.02,114.798 579.77,108.19 L589.45,112.202 C587.56,116.686 584.45,120.443 580.13,123.471 C575.8,126.498 570.49,128.014 564.2,128.014 L564.2,128.014 Z" id="Fill-13" fill="#FFFFFF"></path>
                <path d="M609.27,68.306 L609.27,76.33 L609.75,76.33 C611.32,73.577 613.8,71.237 617.18,69.309 C620.56,67.382 624.18,66.418 628.04,66.418 C635.19,66.418 640.66,68.621 644.44,73.026 C648.21,77.433 650.1,83.333 650.1,90.726 L650.1,126.126 L639.25,126.126 L639.25,92.378 C639.25,81.681 634.48,76.33 624.97,76.33 C620.48,76.33 616.83,78.12 613.99,81.699 C611.16,85.279 609.75,89.428 609.75,94.148 L609.75,126.126 L598.89,126.126 L598.89,68.306 L609.27,68.306" id="Fill-14" fill="#FFFFFF"></path>
                <path d="M686.45,118.102 C691.56,118.102 695.9,116.214 699.48,112.438 C703.06,108.662 704.85,103.588 704.85,97.216 C704.85,90.844 703.06,85.77 699.48,81.994 C695.9,78.218 691.56,76.33 686.45,76.33 C681.41,76.33 677.08,78.238 673.46,82.053 C669.85,85.869 668.04,90.923 668.04,97.216 C668.04,103.511 669.85,108.564 673.46,112.379 C677.08,116.195 681.41,118.102 686.45,118.102 Z M684.67,128.014 C677.2,128.014 670.75,125.064 665.32,119.164 C659.89,113.264 657.18,105.948 657.18,97.216 C657.18,88.484 659.89,81.168 665.32,75.268 C670.75,69.368 677.2,66.418 684.67,66.418 C689.08,66.418 693.03,67.362 696.53,69.25 C700.03,71.138 702.65,73.498 704.38,76.33 L704.85,76.33 L704.38,68.306 L704.38,41.638 L715.24,41.638 L715.24,126.126 L704.85,126.126 L704.85,118.102 L704.38,118.102 C702.65,120.934 700.03,123.294 696.53,125.182 C693.03,127.07 689.08,128.014 684.67,128.014 L684.67,128.014 Z" id="Fill-15" fill="#FFFFFF"></path>
                <path d="M767.28,90.254 C767.04,86.95 765.52,83.805 762.73,80.814 C759.94,77.825 755.79,76.33 750.28,76.33 C746.27,76.33 742.79,77.589 739.84,80.106 C736.89,82.625 734.86,86.006 733.76,90.254 L767.28,90.254 Z M751.7,128.014 C742.97,128.014 735.87,125.104 730.4,119.282 C724.93,113.461 722.2,106.106 722.2,97.216 C722.2,88.799 724.85,81.563 730.16,75.504 C735.47,69.447 742.26,66.418 750.52,66.418 C759.09,66.418 765.96,69.211 771.11,74.796 C776.26,80.383 778.84,87.855 778.84,97.216 L778.72,99.222 L733.06,99.222 C733.37,105.045 735.32,109.646 738.9,113.028 C742.48,116.411 746.66,118.102 751.46,118.102 C759.25,118.102 764.52,114.798 767.28,108.19 L776.95,112.202 C775.06,116.686 771.96,120.443 767.63,123.471 C763.3,126.498 757.99,128.014 751.7,128.014 L751.7,128.014 Z" id="Fill-16" fill="#FFFFFF"></path>
                <path d="M812.94,118.102 C818.05,118.102 822.4,116.214 825.98,112.438 C829.56,108.662 831.35,103.588 831.35,97.216 C831.35,90.844 829.56,85.77 825.98,81.994 C822.4,78.218 818.05,76.33 812.94,76.33 C807.9,76.33 803.58,78.238 799.96,82.053 C796.34,85.869 794.53,90.923 794.53,97.216 C794.53,103.511 796.34,108.564 799.96,112.379 C803.58,116.195 807.9,118.102 812.94,118.102 Z M811.17,128.014 C803.69,128.014 797.25,125.064 791.82,119.164 C786.39,113.264 783.67,105.948 783.67,97.216 C783.67,88.484 786.39,81.168 791.82,75.268 C797.25,69.368 803.69,66.418 811.17,66.418 C815.57,66.418 819.53,67.362 823.03,69.25 C826.53,71.138 829.14,73.498 830.88,76.33 L831.35,76.33 L830.88,68.306 L830.88,41.638 L841.73,41.638 L841.73,126.126 L831.35,126.126 L831.35,118.102 L830.88,118.102 C829.14,120.934 826.53,123.294 823.03,125.182 C819.53,127.07 815.57,128.014 811.17,128.014 L811.17,128.014 Z" id="Fill-17" fill="#FFFFFF"></path>
                <path d="M419.81,205.44 C410.329953,205.44 402.380032,202.230032 395.96,195.81 C389.539968,189.389968 386.33,181.380048 386.33,171.78 C386.33,162.179952 389.539968,154.170032 395.96,147.75 C402.380032,141.329968 410.329953,138.12 419.81,138.12 C429.530049,138.12 437.41997,141.629965 443.48,148.65 L437.72,154.23 C433.339978,148.769973 427.370038,146.04 419.81,146.04 C412.789965,146.04 406.865024,148.409976 402.035,153.15 C397.204976,157.890024 394.79,164.099962 394.79,171.78 C394.79,179.460038 397.204976,185.669976 402.035,190.41 C406.865024,195.150024 412.789965,197.52 419.81,197.52 C427.550039,197.52 434.149973,194.400031 439.61,188.16 L445.37,193.92 C442.429985,197.460018 438.740022,200.26499 434.3,202.335 C429.859978,204.40501 425.030026,205.44 419.81,205.44 Z M489,204 L481.08,204 L481.08,197.88 L480.72,197.88 C479.459994,199.98001 477.540013,201.764993 474.96,203.235 C472.379987,204.705007 469.650014,205.44 466.77,205.44 C461.249972,205.44 457.065014,203.760017 454.215,200.4 C451.364986,197.039983 449.94,192.540028 449.94,186.9 L449.94,159.9 L458.22,159.9 L458.22,185.55 C458.22,193.770041 461.849964,197.88 469.11,197.88 C472.530017,197.88 475.319989,196.500014 477.48,193.74 C479.640011,190.979986 480.72,187.800018 480.72,184.2 L480.72,159.9 L489,159.9 L489,204 Z M501.94,150.54 C500.319992,150.54 498.940006,149.970006 497.8,148.83 C496.659994,147.689994 496.09,146.310008 496.09,144.69 C496.09,143.069992 496.659994,141.690006 497.8,140.55 C498.940006,139.409994 500.319992,138.84 501.94,138.84 C503.560008,138.84 504.939994,139.409994 506.08,140.55 C507.220006,141.690006 507.79,143.069992 507.79,144.69 C507.79,146.310008 507.220006,147.689994 506.08,148.83 C504.939994,149.970006 503.560008,150.54 501.94,150.54 Z M506.08,204 L497.8,204 L497.8,159.9 L506.08,159.9 L506.08,204 Z M528.38,205.44 C523.699977,205.44 519.785016,204.090013 516.635,201.39 C513.484984,198.689987 511.91,195.120022 511.91,190.68 C511.91,185.879976 513.769981,182.115014 517.49,179.385 C521.210019,176.654986 525.799973,175.29 531.26,175.29 C536.120024,175.29 540.109984,176.189991 543.23,177.99 L543.23,176.73 C543.23,173.489984 542.120011,170.89501 539.9,168.945 C537.679989,166.99499 534.950016,166.02 531.71,166.02 C529.309988,166.02 527.13501,166.589994 525.185,167.73 C523.23499,168.870006 521.900004,170.42999 521.18,172.41 L513.62,169.17 C514.640005,166.529987 516.649985,164.085011 519.65,161.835 C522.650015,159.584989 526.609975,158.46 531.53,158.46 C537.170028,158.46 541.849981,160.109983 545.57,163.41 C549.290019,166.710016 551.15,171.35997 551.15,177.36 L551.15,204 L543.23,204 L543.23,197.88 L542.87,197.88 C539.569984,202.920025 534.740032,205.44 528.38,205.44 Z M529.73,197.88 C533.150017,197.88 536.254986,196.605013 539.045,194.055 C541.835014,191.504987 543.23,188.490017 543.23,185.01 C540.889988,183.08999 537.380023,182.13 532.7,182.13 C528.67998,182.13 525.65001,182.999991 523.61,184.74 C521.56999,186.480009 520.55,188.519988 520.55,190.86 C520.55,193.020011 521.479991,194.729994 523.34,195.99 C525.200009,197.250006 527.329988,197.88 529.73,197.88 Z M581.82,205.44 C578.459983,205.44 575.445013,204.720007 572.775,203.28 C570.104987,201.839993 568.110007,200.040011 566.79,197.88 L566.43,197.88 L566.43,204 L558.51,204 L558.51,139.56 L566.79,139.56 L566.79,159.9 L566.43,166.02 L566.79,166.02 C568.110007,163.859989 570.104987,162.060007 572.775,160.62 C575.445013,159.179993 578.459983,158.46 581.82,158.46 C587.520029,158.46 592.439979,160.709978 596.58,165.21 C600.720021,169.710023 602.79,175.289967 602.79,181.95 C602.79,188.610033 600.720021,194.189977 596.58,198.69 C592.439979,203.190022 587.520029,205.44 581.82,205.44 Z M580.47,197.88 C584.310019,197.88 587.609986,196.425015 590.37,193.515 C593.130014,190.604985 594.51,186.750024 594.51,181.95 C594.51,177.149976 593.130014,173.295015 590.37,170.385 C587.609986,167.474985 584.310019,166.02 580.47,166.02 C576.569981,166.02 573.255014,167.459986 570.525,170.34 C567.794986,173.220014 566.43,177.089976 566.43,181.95 C566.43,186.810024 567.794986,190.679986 570.525,193.56 C573.255014,196.440014 576.569981,197.88 580.47,197.88 Z M622.3,205.44 C617.619977,205.44 613.705016,204.090013 610.555,201.39 C607.404984,198.689987 605.83,195.120022 605.83,190.68 C605.83,185.879976 607.689981,182.115014 611.41,179.385 C615.130019,176.654986 619.719973,175.29 625.18,175.29 C630.040024,175.29 634.029984,176.189991 637.15,177.99 L637.15,176.73 C637.15,173.489984 636.040011,170.89501 633.82,168.945 C631.599989,166.99499 628.870016,166.02 625.63,166.02 C623.229988,166.02 621.05501,166.589994 619.105,167.73 C617.15499,168.870006 615.820004,170.42999 615.1,172.41 L607.54,169.17 C608.560005,166.529987 610.569985,164.085011 613.57,161.835 C616.570015,159.584989 620.529975,158.46 625.45,158.46 C631.090028,158.46 635.769981,160.109983 639.49,163.41 C643.210019,166.710016 645.07,171.35997 645.07,177.36 L645.07,204 L637.15,204 L637.15,197.88 L636.79,197.88 C633.489983,202.920025 628.660032,205.44 622.3,205.44 Z M623.65,197.88 C627.070017,197.88 630.174986,196.605013 632.965,194.055 C635.755014,191.504987 637.15,188.490017 637.15,185.01 C634.809988,183.08999 631.300023,182.13 626.62,182.13 C622.59998,182.13 619.57001,182.999991 617.53,184.74 C615.48999,186.480009 614.47,188.519988 614.47,190.86 C614.47,193.020011 615.399991,194.729994 617.26,195.99 C619.120009,197.250006 621.249988,197.88 623.65,197.88 Z M628.96,151.08 L621.76,151.08 L626.44,139.56 L635.44,139.56 L628.96,151.08 Z" id="Cuiabá" fill="#FFFFFF"></path>
                <path d="M233.871327,136 L227.983327,136 L227.983327,99.52 L219.471327,103.232 L217.231327,98.24 L230.095327,92.224 L233.871327,92.224 L233.871327,136 Z M248.216,137.024 L242.968,134.336 L263.256,97.856 L241.112,97.856 L241.24,92.224 L269.464,92.224 L269.464,98.24 L248.216,137.024 Z" id="17" fill="#FFFFFF"></path>
            </g>
        </g>
    </g>
</svg>